<?xml version="1.0" encoding="utf-8"?>
<!-- Generator: Adobe Illustrator 26.5.0, SVG Export Plug-In . SVG Version: 6.00 Build 0)  -->
<svg version="1.1" id="Layer_1" xmlns="http://www.w3.org/2000/svg" xmlns:xlink="http://www.w3.org/1999/xlink" x="0px" y="0px"
	 viewBox="0 0 512 512" style="enable-background:new 0 0 512 512;" xml:space="preserve">
<style type="text/css">
	.st0{fill:#FF0090;}
	.st1{fill:url(#SVGID_1_);}
	.st2{fill:url(#SVGID_00000031922176964985877640000013383007553993982373_);}
	.st3{clip-path:url(#SVGID_00000076563310955790113180000000085129051200044180_);}
	
		.st4{clip-path:url(#SVGID_00000167386978577156111150000018329292422051291787_);fill:url(#SVGID_00000029037461433813854310000016001678977394559371_);}
	.st5{fill:url(#SVGID_00000038406589914652782460000000688828138427844511_);}
	.st6{clip-path:url(#SVGID_00000065757567784247579300000005999498142894876571_);}
	
		.st7{clip-path:url(#SVGID_00000160167551177072505930000009855131077001648556_);fill:url(#SVGID_00000178197188938470502340000012349090151798949530_);}
	.st8{fill:url(#SVGID_00000179645219463610220200000006004609111809808053_);}
</style>
<g id="XMLID_1_">
	<path class="st0" d="M33.5,323.57C7.28,184.19,76.55,49.58,235.7,31.77c-21.87-23.42-51.88-23.56-65.76-20.75
		c-24.4,7.71-23.56,23.56-51.18,43.89c-27.48,15.7-41.22,3.65-61.28,19.91c-19.91,16.13-6.03,53.14-14.44,60.44
		c-8.27,14.44-34.07,27.2-38.84,45.43c-3.93,23.28,10.52,39.82,9.96,59.87c1.68,16.69-16.55,26.08-13.88,39.54
		c7.85,22.01,23,35.2,30.01,41.37C32.1,322.45,33.78,325.26,33.5,323.57L33.5,323.57z"/>
	
		<radialGradient id="SVGID_1_" cx="-698.098" cy="-282.2686" r="1.8021" gradientTransform="matrix(214.0468 0 0 153.1175 149784.5625 43368.2812)" gradientUnits="userSpaceOnUse">
		<stop  offset="0" style="stop-color:#F80090"/>
		<stop  offset="1" style="stop-color:#4D008E"/>
	</radialGradient>
	<path class="st1" d="M316.6,130.63c-5.75,0-10.52-4.77-10.52-10.52s4.77-10.52,10.52-10.52c5.75,0,10.52,4.77,10.52,10.52
		S322.35,130.63,316.6,130.63L316.6,130.63z M39.53,338.86C14.29,217.71,92.39,116.33,243.41,166.25
		c88.62,51.88,200.09,48.52,205.14,15c12.48-40.24-56.51-122.97-159.57-144.57C84.68-3.28-25.53,217.57,39.53,338.86L39.53,338.86z"
		/>
	
		<radialGradient id="SVGID_00000016788031240383518190000008713375216451486119_" cx="-698.6149" cy="-282.9345" r="1.6389" gradientTransform="matrix(238.5784 0 0 180.475 167036.7344 51218.8672)" gradientUnits="userSpaceOnUse">
		<stop  offset="0" style="stop-color:#57008E"/>
		<stop  offset="0.2917" style="stop-color:#5C008E"/>
		<stop  offset="1" style="stop-color:#F80090"/>
	</radialGradient>
	<path style="fill:url(#SVGID_00000016788031240383518190000008713375216451486119_);" d="M374.94,352.32
		c30.29,3.23,59.17-4.07,85.81-25.8c-40.38,45.01-90.72,67.59-148.63,73.76c27.62,23.56,54.27,34.07,79.79,29.59
		c-70.81,19.49-130.26-1.96-202.34-73.9c-3.79,19.35,16.69,49.5,37.72,68.71c-122.27-53-132.93-218.18,16.13-258.71
		C88.89,91.65,1.53,235.94,44.44,354.28c42.07,91,153.96,161.11,276.65,145.83c59.59-7.29,148.63-48.38,184.95-145.83
		c-25.66,23-71.37,43.05-91.84,44.59c69.13-34.63,106.57-93.25,96.05-173.59c-14.3,34.07-33.23,60.29-56.93,78.24
		c50.2-78.24,41.65-118.77,4.49-163.22C484.31,213.5,449.81,294.69,374.94,352.32L374.94,352.32z"/>
	<g id="XMLID_5_">
		<g>
			<defs>
				<polygon id="SVGID_00000047034366738506243300000007094486067373767313_" points="105.72,111 107.12,111 105.72,112.4 				"/>
			</defs>
			<defs>
				<polygon id="SVGID_00000076573907044262339220000010724120550144204939_" points="102.91,108.19 101.51,108.19 102.91,106.79 
									"/>
			</defs>
			<clipPath id="SVGID_00000036948923677275750930000012238671863080790683_">
				<use xlink:href="#SVGID_00000047034366738506243300000007094486067373767313_"  style="overflow:visible;"/>
			</clipPath>
			
				<clipPath id="SVGID_00000178887597944525729370000000476722390905371779_" style="clip-path:url(#SVGID_00000036948923677275750930000012238671863080790683_);">
				<use xlink:href="#SVGID_00000076573907044262339220000010724120550144204939_"  style="overflow:visible;"/>
			</clipPath>
			
				<linearGradient id="SVGID_00000090994739378745231850000002552059543205296061_" gradientUnits="userSpaceOnUse" x1="-692.0541" y1="-277.2097" x2="-690.7957" y2="-275.5232" gradientTransform="matrix(75.1919 0 0 59.9288 52251.1836 16970.2031)">
				<stop  offset="0" style="stop-color:#FFFFFF"/>
				<stop  offset="0.6697" style="stop-color:#FFFFFF"/>
				<stop  offset="0.8271" style="stop-color:#333333"/>
				<stop  offset="1" style="stop-color:#000000"/>
			</linearGradient>
			
				<path style="clip-path:url(#SVGID_00000178887597944525729370000000476722390905371779_);fill:url(#SVGID_00000090994739378745231850000002552059543205296061_);" d="
				M339.46,436.59c-5.19-0.98,11.92,7.01-21.31-1.82c-33.09-8.83-66.89-17.25-128.72-78.66c-3.79,19.35,16.69,49.5,37.72,68.71
				c56.93,39.68,18.23,21.17,104.88,51.04C339.04,462.11,339.46,449.77,339.46,436.59L339.46,436.59z"/>
		</g>
	</g>
	
		<linearGradient id="SVGID_00000023255805393598044940000002329749452374211980_" gradientUnits="userSpaceOnUse" x1="-692.0541" y1="-277.2097" x2="-690.7957" y2="-275.5232" gradientTransform="matrix(75.1919 0 0 59.9288 52251.1836 16970.2031)">
		<stop  offset="0" style="stop-color:#F70090"/>
		<stop  offset="0.6697" style="stop-color:#E50090"/>
		<stop  offset="0.8271" style="stop-color:#D6008F"/>
		<stop  offset="1" style="stop-color:#C10090"/>
	</linearGradient>
	<path style="fill:url(#SVGID_00000023255805393598044940000002329749452374211980_);" d="M339.46,436.59
		c-5.19-0.98,11.92,7.01-21.31-1.82c-33.09-8.83-66.89-17.25-128.72-78.66c-3.79,19.35,16.69,49.5,37.72,68.71
		c56.93,39.68,18.23,21.17,104.88,51.04C339.04,462.11,339.46,449.77,339.46,436.59L339.46,436.59z"/>
	<g id="XMLID_6_">
		<g>
			<defs>
				<polygon id="SVGID_00000089547558803021721460000011769653590396314497_" points="105.72,111 107.12,111 105.72,112.4 				"/>
			</defs>
			<defs>
				<polygon id="SVGID_00000065055720384771564080000011263343063693016457_" points="102.91,108.19 101.51,108.19 102.91,106.79 
									"/>
			</defs>
			<clipPath id="SVGID_00000091712771834452910770000003364584145196403616_">
				<use xlink:href="#SVGID_00000089547558803021721460000011769653590396314497_"  style="overflow:visible;"/>
			</clipPath>
			
				<clipPath id="SVGID_00000124884286686874280970000010613218147432674688_" style="clip-path:url(#SVGID_00000091712771834452910770000003364584145196403616_);">
				<use xlink:href="#SVGID_00000065055720384771564080000011263343063693016457_"  style="overflow:visible;"/>
			</clipPath>
			
				<linearGradient id="SVGID_00000100361321140193715420000015286296937992027808_" gradientUnits="userSpaceOnUse" x1="-687.4845" y1="-272.6222" x2="-687.8967" y2="-273.0532" gradientTransform="matrix(54.248 0 0 29.6197 37503.6484 8188.6802)">
				<stop  offset="0" style="stop-color:#272727"/>
				<stop  offset="0.4004" style="stop-color:#666666"/>
				<stop  offset="0.649" style="stop-color:#E3E3E3"/>
				<stop  offset="1" style="stop-color:#FFFFFF"/>
			</linearGradient>
			
				<path style="clip-path:url(#SVGID_00000124884286686874280970000010613218147432674688_);fill:url(#SVGID_00000100361321140193715420000015286296937992027808_);" d="
				M229.25,125.16c0,0,7.57-11.08,10.52-16.13c3.65-6.17,9.11-17.39,9.11-17.39s-58.05-18.93-72.21-21.17
				c-44.31,11.5-44.45,30.01-19.63,58.33C159.7,131.89,229.25,125.16,229.25,125.16L229.25,125.16z"/>
		</g>
	</g>
	
		<linearGradient id="SVGID_00000067231637066261825470000011041731996920175015_" gradientUnits="userSpaceOnUse" x1="-687.4845" y1="-272.6222" x2="-687.8967" y2="-273.0532" gradientTransform="matrix(54.248 0 0 29.6197 37503.6484 8188.6802)">
		<stop  offset="0" style="stop-color:#B2008F"/>
		<stop  offset="0.4004" style="stop-color:#F70090"/>
		<stop  offset="0.649" style="stop-color:#F60090"/>
		<stop  offset="1" style="stop-color:#FF0090"/>
	</linearGradient>
	<path style="fill:url(#SVGID_00000067231637066261825470000011041731996920175015_);" d="M229.25,125.16
		c0,0,7.57-11.08,10.52-16.13c3.65-6.17,9.11-17.39,9.11-17.39s-58.05-18.93-72.21-21.17c-44.31,11.5-44.45,30.01-19.63,58.33
		C159.7,131.89,229.25,125.16,229.25,125.16L229.25,125.16z"/>
</g>
</svg>
