<?xml version="1.0" encoding="utf-8"?>
<svg viewBox="197.398 104.072 105.204 116.516" xmlns="http://www.w3.org/2000/svg">
  <path d="M 204.933 157.525 L 204.183 129.175 Q 204.183 122.425 202.683 118.525 Q 201.183 114.625 201.183 114.325 Q 201.183 111.025 211.308 109.225 Q 221.433 107.425 226.758 107.425 Q 232.083 107.425 232.533 109.975 Q 241.983 152.125 248.433 168.475 Q 249.183 170.275 250.008 170.275 Q 250.833 170.275 251.433 168.925 Q 261.483 140.575 269.133 112.825 Q 269.733 111.025 272.133 110.05 Q 274.533 109.075 280.458 108.175 Q 286.383 107.275 292.233 107.275 Q 298.083 107.275 298.083 109.675 Q 298.083 109.825 297.633 112 Q 297.183 114.175 296.733 117.325 Q 296.283 120.475 295.683 124.975 Q 294.333 135.325 293.958 148.75 Q 293.583 162.175 293.583 175.675 L 293.883 191.425 Q 293.883 202.225 295.308 206.8 Q 296.733 211.375 296.733 212.05 Q 296.733 212.725 295.683 213.625 Q 291.033 217.375 281.583 217.375 Q 275.583 217.375 274.833 213.325 Q 274.383 211.225 274.383 206.65 Q 274.383 202.075 275.283 178.525 Q 276.183 154.975 276.183 144.25 Q 276.183 133.525 274.983 133.525 Q 274.833 133.525 274.833 133.6 Q 274.833 133.675 274.383 133.825 Q 273.933 133.975 272.058 138.475 Q 270.183 142.975 264.633 160.675 Q 259.083 178.375 254.583 193.75 Q 250.083 209.125 249.633 210.325 Q 247.983 214.375 243.333 214.375 Q 241.083 214.375 239.733 212.725 Q 234.933 190.525 222.633 149.275 L 218.433 135.625 Q 218.133 134.875 217.833 134.875 Q 217.083 134.875 216.783 135.925 Q 216.183 145.675 216.183 174.25 Q 216.183 202.825 218.283 210.325 Q 218.433 210.625 218.433 211.225 Q 218.433 214.375 213.483 215.8 Q 208.533 217.225 204.558 217.225 Q 200.583 217.225 200.583 215.425 Q 200.583 215.275 201.333 213.025 Q 203.583 205.375 204.258 190.825 Q 204.933 176.275 204.933 157.525 Z" style="fill: rgb(138, 76, 209); white-space: pre;"/>
  <path d="M 152.808 157.525 L 152.058 129.175 Q 152.058 122.425 150.558 118.525 Q 149.058 114.625 149.058 114.325 Q 149.058 111.025 159.183 109.225 Q 169.308 107.425 174.633 107.425 Q 179.958 107.425 180.408 109.975 Q 189.858 152.125 196.308 168.475 Q 197.058 170.275 197.883 170.275 Q 198.708 170.275 199.308 168.925 Q 209.358 140.575 217.008 112.825 Q 217.608 111.025 220.008 110.05 Q 222.408 109.075 228.333 108.175 Q 234.258 107.275 240.108 107.275 Q 245.958 107.275 245.958 109.675 Q 245.958 109.825 245.508 112 Q 245.058 114.175 244.608 117.325 Q 244.158 120.475 243.558 124.975 Q 242.208 135.325 241.833 148.75 Q 241.458 162.175 241.458 175.675 L 241.758 191.425 Q 241.758 202.225 243.183 206.8 Q 244.608 211.375 244.608 212.05 Q 244.608 212.725 243.558 213.625 Q 238.908 217.375 229.458 217.375 Q 223.458 217.375 222.708 213.325 Q 222.258 211.225 222.258 206.65 Q 222.258 202.075 223.158 178.525 Q 224.058 154.975 224.058 144.25 Q 224.058 133.525 222.858 133.525 Q 222.708 133.525 222.708 133.6 Q 222.708 133.675 222.258 133.825 Q 221.808 133.975 219.933 138.475 Q 218.058 142.975 212.508 160.675 Q 206.958 178.375 202.458 193.75 Q 197.958 209.125 197.508 210.325 Q 195.858 214.375 191.208 214.375 Q 188.958 214.375 187.608 212.725 Q 182.808 190.525 170.508 149.275 L 166.308 135.625 Q 166.008 134.875 165.708 134.875 Q 164.958 134.875 164.658 135.925 Q 164.058 145.675 164.058 174.25 Q 164.058 202.825 166.158 210.325 Q 166.308 210.625 166.308 211.225 Q 166.308 214.375 161.358 215.8 Q 156.408 217.225 152.433 217.225 Q 148.458 217.225 148.458 215.425 Q 148.458 215.275 149.208 213.025 Q 151.458 205.375 152.133 190.825 Q 152.808 176.275 152.808 157.525 Z" transform="matrix(1, 0, 0, 1, 55.995476, 1.696833)" style="fill: rgb(241, 241, 241); paint-order: fill; white-space: pre;"/>
</svg>